<?xml version="1.0" encoding="utf-8"?>
<!-- Generator: Adobe Illustrator 16.0.0, SVG Export Plug-In . SVG Version: 6.00 Build 0)  -->
<!DOCTYPE svg PUBLIC "-//W3C//DTD SVG 1.1//EN" "http://www.w3.org/Graphics/SVG/1.1/DTD/svg11.dtd">
<svg version="1.1" id="Calque_1" xmlns="http://www.w3.org/2000/svg" xmlns:xlink="http://www.w3.org/1999/xlink" x="0px" y="0px"
	 width="207.113px" height="269.875px" viewBox="0 0 207.113 269.875" enable-background="new 0 0 207.113 269.875"
	 xml:space="preserve">
<circle fill="none" stroke="#EC008C" stroke-width="3" stroke-miterlimit="10" cx="104.474" cy="103.999" r="99"/>
<path stroke="#EC008C" stroke-width="3" stroke-miterlimit="10" d="M100.933,156.208c0,0-29.671-51.52-26.49-68.154
	c3.18-16.633,8.559-64.898,28.263-77.106"/>
<path stroke="#EC008C" stroke-width="3" stroke-miterlimit="10" d="M99.697,156.119c0,0,31.007-50.572,28.295-67.289
	c-2.711-16.717-6.735-65.112-26.089-77.869"/>
<path stroke="#EC008C" stroke-width="3" stroke-miterlimit="10" d="M91.163,136.753c0,0-22.008,6.4-25.659,13.865
	c-3.651,7.465,3.942,35.182,3.942,35.182s-22.959-32.912-23.346-36.643c-0.386-3.729,26.567-46.381,32.893-49.85
	C85.32,95.837,91.163,136.753,91.163,136.753z"/>
<path stroke="#EC008C" stroke-width="3" stroke-miterlimit="10" d="M112.115,136.771c0,0,22.23,5.572,26.159,12.898
	c3.928,7.322-2.624,35.301-2.624,35.301s21.714-33.744,21.96-37.488c0.246-3.74-28.282-45.355-34.734-48.586
	C116.426,95.666,112.115,136.771,112.115,136.771z"/>
<radialGradient id="SVGID_1_" cx="113.7285" cy="68.6372" r="13.6255" gradientTransform="matrix(0.734 -0.6792 0.6792 0.734 -29.0604 94.0106)" gradientUnits="userSpaceOnUse">
	<stop  offset="0" style="stop-color:#EC008C"/>
	<stop  offset="1" style="stop-color:#FACFDA"/>
</radialGradient>
<circle fill="url(#SVGID_1_)" stroke="#EC008C" stroke-miterlimit="10" cx="101.031" cy="67.149" r="13.625"/>
<path fill="#EC008C" stroke="#EC008C" stroke-width="3" stroke-miterlimit="10" d="M100.414,168.822
	c0.618,7.055-2.55,18.633-7.137,27.418c-4.586,8.785-7.161,14.348-8.158,15.723c-0.996,1.377,4.704-5.715,7.095-6.564
	c2.392-0.852-4.216,12.129-4.365,24.73c-0.149,12.6,3.682,17.23,5.317,29.795s0.765-64.979,18.599-29.471
	c7.198,14.332-2.144-11.641-5.806-32.777c-3.661-21.135,5.093,1.422,10.549,4.205c5.456,2.785-1.861-3.16-3.961-9.848
	c-2.1-6.686-9.404-17.033-5.669-29.193c3.735-12.158-1.571,9.1-4.087,0.982C100.276,155.705,97.766,140.472,100.414,168.822"/>
</svg>
